<svg width="48" height="32" viewBox="0 0 48 32" fill="none" xmlns="http://www.w3.org/2000/svg">
<rect width="48" height="32" rx="4" fill="#DFE3E8"/>
<path d="M3.65086 10.5402L4.19086 11.8602H2.38086L2.93086 10.5402L3.29086 9.66016L3.65086 10.5402Z" fill="#296DB6"/>
<path fill-rule="evenodd" clip-rule="evenodd" d="M41.69 8.9002V7.2402H45.28V15.4002H41.9L40.9 13.8202V15.4002H36L35.51 14.1802H34.39L33.93 15.4002H31.06C30.1945 15.4219 29.3453 15.1623 28.64 14.6602V15.4002H23.83L22.67 13.9402V15.4002H4.33L3.87 14.1802H2.75L2.28 15.4002H0V14.1802H1.52L2 13.0002H4.63L5.11 14.1402H6.65L4.23 8.5002H2.45L0 14.1802V11.0002L1.6 7.2002H4.86L5.8 9.3002V7.2002H9.8L10.4 9.0002L11 7.2402H28.64V8.0602C29.3524 7.50404 30.2366 7.21402 31.14 7.2402H36.48L37.48 9.3402V7.2402H40.62L41.69 8.9002ZM12.59 14.1402H13.91V8.5002H11.7L10.58 11.7602L10.4 12.3802L10.22 11.7602L9.12 8.5002H6.91V14.1402H8.22V10.4402V9.5802L8.5 10.4402L9.78 14.1402H11L12.33 10.4402L12.59 9.5802V10.4402V14.1402ZM19.5 9.7002H16.33V10.7002H19.42V11.9002H16.33V12.9002H19.5V14.1002H15V8.5002H19.5V9.7002ZM22.41 12.1402L24.09 14.1402H25.83L23.95 12.0602C24.8453 11.9523 25.5119 11.1817 25.49 10.2802C25.4973 9.76632 25.2808 9.27465 24.8969 8.93298C24.513 8.59131 23.9996 8.43336 23.49 8.5002H20.4V14.1402H21.79V12.1402H22.41ZM27.48 14.1402H26.11V8.5002H27.48V14.1402ZM30.9 14.1402H30.98L31.53 12.9402H31.1C30.685 12.9615 30.2819 12.7974 29.9999 12.4922C29.7179 12.187 29.586 11.7722 29.64 11.3602V11.2802C29.5925 10.8714 29.7272 10.4623 30.0085 10.1618C30.2897 9.86133 30.6889 9.6998 31.1 9.7202H32.59V8.5002H31C30.2529 8.44703 29.5202 8.72504 28.9963 9.26042C28.4725 9.7958 28.2106 10.5344 28.28 11.2802V11.3602C28.1964 12.0917 28.4396 12.8228 28.9445 13.3585C29.4494 13.8943 30.1649 14.1803 30.9 14.1402ZM36.76 14.1402L36.28 13.0002H33.61L33.13 14.1802H31.67L34.09 8.5002H35.89L38.3 14.1402H36.76ZM42.35 14.1402H43.95L44 8.4602H42.6V11.4602V12.1402L42.22 11.5002L40.22 8.5002H38.56V14.1802H39.9V11.0402V10.3802L40.26 11.0002L42.35 14.1402ZM35.9 11.8602L35.36 10.5402L35 9.6602L34.64 10.5402L34.12 11.8602H35.9ZM21.79 9.7002H23.37C23.5471 9.68039 23.7243 9.73652 23.8577 9.85468C23.9912 9.97285 24.0683 10.142 24.07 10.3202C24.0749 10.5006 23.9998 10.6739 23.8647 10.7935C23.7296 10.9132 23.5485 10.9669 23.37 10.9402H21.79V9.7002Z" fill="#296DB6"/>
<path fill-rule="evenodd" clip-rule="evenodd" d="M48.0009 19.1604H45.0709C44.5688 19.1021 44.0662 19.265 43.6937 19.6067C43.3213 19.9484 43.1159 20.4352 43.1309 20.9404C43.1005 21.4073 43.2799 21.8634 43.6203 22.1845C43.9607 22.5055 44.4265 22.658 44.8909 22.6004H46.1809C46.3833 22.5597 46.5904 22.6451 46.7052 22.8168C46.8201 22.9884 46.8201 23.2124 46.7052 23.384C46.5904 23.5557 46.3833 23.6411 46.1809 23.6004H43.2909V24.8004H46.1609C46.9551 24.8739 47.7004 24.4071 47.9809 23.6604V25.5604C47.4347 25.898 46.8029 26.0716 46.1609 26.0604H30.5409L29.3809 24.6004V26.0604H25.9509V24.0004C25.4652 24.1506 24.9592 24.2248 24.4509 24.2204H23.8909V26.0604H18.8409L18.0009 24.8404L17.1409 26.0604H8.88086V17.9004H17.1609L18.0009 19.1004L18.8609 17.9004H48.0009V19.1604ZM47.4609 20.3604H45.0009C44.7984 20.3197 44.5914 20.4051 44.4765 20.5768C44.3616 20.7484 44.3616 20.9724 44.4765 21.144C44.5914 21.3157 44.7984 21.4011 45.0009 21.3604H46.3109C47.0026 21.2893 47.6626 21.6675 47.9509 22.3004V19.2004L47.4609 20.3604ZM14.7109 20.3604H11.5409V21.3604H14.6509V22.5404H11.5409V23.5404H14.7109V24.7404H10.1809V19.1604H14.7109V20.3604ZM18.0009 23.0004L19.3609 24.8004L21.0809 24.8404L18.8009 22.0004L21.0409 19.1604H19.3809L18.0009 20.9404L16.6309 19.1804H14.9309L17.2009 22.0004L15.0009 24.8004H16.5909L18.0009 23.0004ZM24.3609 22.9404H22.6609V24.8004H21.3209V19.1604H24.4309C24.9553 19.1045 25.478 19.2802 25.8623 19.6414C26.2466 20.0026 26.4542 20.5135 26.4309 21.0404C26.4482 21.5744 26.2337 22.0899 25.8427 22.454C25.4517 22.8182 24.9223 22.9955 24.3909 22.9404H24.3609ZM29.0709 22.8004L30.7509 24.8004H32.4909L30.6009 22.7204C31.2368 22.6454 31.7844 22.2368 32.0374 21.6485C32.2904 21.0603 32.2103 20.3817 31.8274 19.8685C31.4444 19.3553 30.8168 19.0854 30.1809 19.1604H27.1209V24.8004H28.4509V22.8004H29.0709ZM37.3309 20.3604H34.1909V21.3604H37.2809V22.5404H34.1909V23.5404H37.3609V24.7404H32.8109V19.1604H37.3609L37.3309 20.3604ZM38.0809 24.8004H41.0009C41.4976 24.8405 41.9878 24.667 42.3486 24.3233C42.7095 23.9796 42.9067 23.4985 42.8909 23.0004C42.9161 22.5382 42.7335 22.0888 42.3929 21.7753C42.0523 21.4618 41.5894 21.317 41.1309 21.3804H39.8209C39.6184 21.4211 39.4114 21.3357 39.2965 21.164C39.1816 20.9924 39.1816 20.7684 39.2965 20.5968C39.4114 20.4251 39.6184 20.3397 39.8209 20.3804H42.2509L42.7909 19.1804H39.8609C39.3623 19.1226 38.8631 19.2829 38.4914 19.6201C38.1198 19.9573 37.9118 20.4386 37.9209 20.9404C37.8905 21.4073 38.0699 21.8634 38.4103 22.1845C38.7507 22.5055 39.2165 22.658 39.6809 22.6004H41.0009C41.2033 22.5597 41.4104 22.6451 41.5252 22.8168C41.6401 22.9884 41.6401 23.2124 41.5252 23.384C41.4104 23.5557 41.2033 23.6411 41.0009 23.6004H38.0809V24.8004ZM30.0609 20.3604H28.4809V21.6004H30.0609C30.2393 21.6271 30.4205 21.5734 30.5555 21.4537C30.6906 21.3341 30.7658 21.1608 30.7609 20.9804C30.7624 20.8011 30.6862 20.63 30.552 20.5111C30.4177 20.3922 30.2386 20.3373 30.0609 20.3604ZM22.6909 20.3604H24.3109C24.6919 20.3604 25.0009 20.6693 25.0009 21.0504C25.0009 21.4315 24.6919 21.7404 24.3109 21.7404H22.6909V20.3604Z" fill="#296DB6"/>
</svg>
