<svg width="48" height="32" viewBox="0 0 48 32" fill="none" xmlns="http://www.w3.org/2000/svg">
<path d="M48 4V28C48 30.2091 46.2091 32 44 32H4C3.53583 32.0035 3.07493 31.9222 2.64 31.76C1.05621 31.1874 0.00071654 29.6841 0 28V4C0 1.79086 1.79086 0 4 0H44C46.2091 0 48 1.79086 48 4Z" fill="#DFE3E8"/>
<path d="M48 16V27.9646C48 30.1932 46.1839 31.9999 43.9436 31.9999H3.37919C2.90847 32.0034 2.44107 31.9214 2 31.7578C5.40741 31.2735 8.69312 30.6682 11.918 29.9822C12.7698 29.8208 13.6014 29.6191 14.433 29.4375C27.8395 26.3908 39.4409 21.9117 45.9718 17.5132C46.7019 17.0088 47.3915 16.5044 48 16Z" fill="#EE7623"/>
<path fill-rule="evenodd" clip-rule="evenodd" d="M4 10.6402H5.82V10.6002C7.21326 10.4995 8.51258 11.3085 9.03688 12.6033C9.56117 13.8981 9.19084 15.3832 8.12 16.2802C7.46653 16.7922 6.64875 17.0482 5.82 17.0002H4V10.6402ZM5.58 16.0002C6.20562 16.0551 6.82663 15.853 7.3 15.4402C7.75024 15.0307 8.00481 14.4489 8 13.8402C8.00869 13.2308 7.75346 12.6474 7.3 12.2402C6.81872 11.8449 6.19969 11.6578 5.58 11.7202H5.26V16.0002H5.58Z" fill="#231F20"/>
<rect x="9.84961" y="10.6299" width="1.25" height="6.42" fill="#231F20"/>
<path d="M14.1695 13.0895C13.4195 12.8195 13.1695 12.6295 13.1695 12.2795C13.1695 11.9295 13.5595 11.5695 14.0995 11.5695C14.4935 11.586 14.8598 11.7765 15.0995 12.0895L15.7495 11.2395C15.2364 10.7705 14.5647 10.5132 13.8695 10.5195C13.3574 10.4866 12.854 10.6646 12.4763 11.0121C12.0986 11.3596 11.8794 11.8464 11.8695 12.3595C11.8695 13.2495 12.2695 13.6995 13.4395 14.1195C13.7403 14.2158 14.0315 14.3397 14.3095 14.4895C14.5452 14.6256 14.6902 14.8773 14.6895 15.1495C14.6877 15.4063 14.5787 15.6506 14.3888 15.8234C14.1988 15.9962 13.9453 16.0818 13.6895 16.0595C13.1063 16.0658 12.5738 15.7291 12.3295 15.1995L11.5195 15.9795C11.9922 16.7798 12.8714 17.2503 13.7995 17.1995C14.3767 17.2389 14.9439 17.0339 15.3624 16.6344C15.7809 16.2349 16.0121 15.6779 15.9995 15.0995C15.9995 14.0795 15.5895 13.6095 14.1695 13.0895Z" fill="#231F20"/>
<path d="M16.4103 13.8397C16.402 14.7377 16.7578 15.6007 17.3965 16.232C18.0353 16.8632 18.9025 17.2087 19.8003 17.1897C20.3456 17.193 20.8838 17.0661 21.3703 16.8197V15.3497C20.9926 15.7914 20.4414 16.0469 19.8603 16.0497C19.2725 16.0645 18.7052 15.8333 18.2951 15.4118C17.885 14.9904 17.6695 14.4169 17.7003 13.8297C17.6814 13.258 17.8934 12.7026 18.2884 12.2888C18.6834 11.875 19.2283 11.6375 19.8003 11.6297C20.403 11.6321 20.9753 11.8946 21.3703 12.3497V10.8797C20.899 10.6185 20.3692 10.4808 19.8303 10.4797C18.9304 10.4691 18.0634 10.8177 17.4215 11.4484C16.7795 12.0791 16.4156 12.9398 16.4103 13.8397Z" fill="#231F20"/>
<path d="M31.3007 14.9399L29.5807 10.6299H28.2207L30.9407 17.2099H31.6107L34.3907 10.6299H33.0307L31.3007 14.9399Z" fill="#231F20"/>
<path d="M34.9492 17.0499H38.5092V15.9599H36.1992V14.2299H38.4192V13.1399H36.1992V11.7199H38.5092V10.6299H34.9492V17.0499Z" fill="#231F20"/>
<path fill-rule="evenodd" clip-rule="evenodd" d="M43.4598 12.5196C43.5279 13.42 42.8921 14.2213 41.9998 14.3596L43.9998 16.9996H42.4798L40.7398 14.4596H40.5998V16.9996H39.3398V10.6396H41.1798C42.6398 10.6396 43.4598 11.3196 43.4598 12.5196ZM40.5998 13.5796H40.9998C41.7398 13.5796 42.1798 13.3196 42.1798 12.6396C42.1798 11.9596 41.7598 11.6396 40.9998 11.6396H40.5998V13.5796Z" fill="#231F20"/>
<path d="M28.5895 13.8397C28.5895 15.723 27.0628 17.2497 25.1795 17.2497C23.2962 17.2497 21.7695 15.723 21.7695 13.8397C21.7695 11.9564 23.2962 10.4297 25.1795 10.4297C27.0605 10.4352 28.584 11.9587 28.5895 13.8397Z" fill="#EE7623"/>
<path fill-rule="evenodd" clip-rule="evenodd" d="M44.1192 10.7601C44.116 10.8287 44.0666 10.8864 43.9992 10.9001L44.1792 11.1601H44.0192L43.8392 10.9201V11.1601H43.6992V10.5801H43.8992C44.0392 10.5801 44.1192 10.6401 44.1192 10.7601ZM43.9792 10.7601C43.9792 10.7001 43.9392 10.7001 43.8792 10.7001V10.8201H43.8992C43.9524 10.8201 43.9717 10.8201 43.978 10.811C43.9836 10.8031 43.9792 10.7881 43.9792 10.7601Z" fill="#231F20"/>
<path fill-rule="evenodd" clip-rule="evenodd" d="M43.4609 10.8598C43.4607 10.5913 43.6726 10.3705 43.9409 10.3598C44.077 10.3543 44.2094 10.4046 44.3075 10.499C44.4056 10.5933 44.461 10.7236 44.4609 10.8598C44.4609 11.1359 44.2371 11.3598 43.9609 11.3598C43.6848 11.3598 43.4609 11.1359 43.4609 10.8598ZM43.9409 11.2798C44.0417 11.2829 44.138 11.2385 44.2009 11.1598C44.2759 11.0776 44.3185 10.971 44.3209 10.8598C44.3209 10.6499 44.1508 10.4798 43.9409 10.4798C43.7311 10.4798 43.5609 10.6499 43.5609 10.8598C43.5527 10.9666 43.5887 11.0721 43.6606 11.1515C43.7324 11.231 43.8338 11.2773 43.9409 11.2798Z" fill="#231F20"/>
</svg>
