<svg width="48" height="32" viewBox="0 0 48 32" fill="none" xmlns="http://www.w3.org/2000/svg">
<rect width="48" height="32" rx="4" fill="#DFE3E8"/>
<g opacity="0.01">
<rect x="4.65039" y="3.2002" width="38.71" height="25.6" fill="white"/>
</g>
<rect x="18.9004" y="7.66016" width="10.21" height="16.68" fill="#F26122"/>
<path d="M20.0007 15.9998C19.9839 12.7533 21.4584 9.67887 24.0007 7.65981C19.651 4.23911 13.4027 4.73583 9.64802 8.80082C5.89337 12.8658 5.89337 19.1338 9.64802 23.1988C13.4027 27.2638 19.651 27.7605 24.0007 24.3398C21.4584 22.3208 19.9839 19.2463 20.0007 15.9998Z" fill="#EA1D25"/>
<path fill-rule="evenodd" clip-rule="evenodd" d="M40.1395 22.2302V22.5702H40.0795V22.2302H39.9395V22.1602H40.2895V22.2302H40.1395ZM40.8195 22.1602V22.5702H40.7495V22.2602L40.6395 22.5302H40.5595L40.4395 22.2602V22.5702H40.3695V22.1602H40.4695L40.5995 22.4502L40.7195 22.1602H40.8195Z" fill="#F69E1E"/>
<path d="M41.16 15.9997C41.1574 20.0591 38.8389 23.7611 35.1879 25.5356C31.5369 27.31 27.1935 26.8457 24 24.3397C28.6001 20.7177 29.3967 14.054 25.78 9.44974C25.2616 8.78301 24.6638 8.18192 24 7.65974C27.1935 5.15374 31.5369 4.68949 35.1879 6.46391C38.8389 8.23834 41.1574 11.9404 41.16 15.9997Z" fill="#F69E1E"/>
</svg>
