<svg width="48" height="32" viewBox="0 0 48 32" fill="none" xmlns="http://www.w3.org/2000/svg">
<rect width="48" height="32" rx="4" fill="#DFE3E8"/>
<path d="M20.3385 25.3197L20.6885 23.1197H19.9085H16.2285L18.7885 6.85969C18.7953 6.80931 18.8202 6.76312 18.8585 6.72969C18.8987 6.69862 18.9477 6.68112 18.9985 6.67969H25.2085C27.2785 6.67969 28.6985 7.10969 29.4485 7.95969C29.7804 8.31622 30.0116 8.75449 30.1185 9.22969C30.2351 9.80719 30.2351 10.4022 30.1185 10.9797V11.4797L30.4685 11.6797C30.735 11.8125 30.9754 11.992 31.1785 12.2097C31.4842 12.5787 31.6815 13.0252 31.7485 13.4997C31.8234 14.1199 31.7964 14.7482 31.6685 15.3597C31.5366 16.1025 31.2761 16.8165 30.8985 17.4697C30.5934 17.9933 30.1811 18.4466 29.6885 18.7997C29.1928 19.1377 28.6408 19.3849 28.0585 19.5297C27.4048 19.6946 26.7327 19.7752 26.0585 19.7697H25.5685C25.2251 19.7697 24.8925 19.89 24.6285 20.1097C24.3631 20.3333 24.1888 20.6463 24.1385 20.9897V21.1897L23.5285 25.0697V25.2197C23.5358 25.2459 23.5358 25.2735 23.5285 25.2997H23.4685L20.3385 25.3197Z" fill="#253D80"/>
<path d="M30.8002 11.0801L30.7402 11.4501C29.9202 15.6501 27.1102 17.1101 23.5302 17.1101H21.7102C21.2724 17.1095 20.8991 17.4276 20.8302 17.8601L19.9002 23.7801L19.6302 25.4601C19.61 25.5946 19.649 25.7313 19.7372 25.8349C19.8254 25.9384 19.9542 25.9987 20.0902 26.0001H23.3302C23.7144 25.9997 24.0411 25.7197 24.1002 25.3401V25.1801L24.7102 21.3101V21.1001C24.7648 20.722 25.0883 20.4411 25.4702 20.4401H26.0002C29.1302 20.4401 31.5902 19.1701 32.3002 15.4401C32.6844 14.1652 32.4474 12.784 31.6602 11.7101C31.4105 11.4539 31.1198 11.241 30.8002 11.0801V11.0801Z" fill="#189BD7"/>
<path d="M29.9384 10.7398L29.5584 10.6398L29.1384 10.5598C28.6089 10.4807 28.0738 10.4439 27.5384 10.4498H22.6584C22.5444 10.4467 22.4313 10.4707 22.3284 10.5198C22.0966 10.6284 21.9349 10.8464 21.8984 11.0998L20.8984 17.6698V17.8598C20.9673 17.4274 21.3405 17.1093 21.7784 17.1098H23.5984C27.1784 17.1098 29.9884 15.6498 30.8084 11.4498L30.8684 11.0798C30.653 10.9685 30.429 10.8749 30.1984 10.7998L29.9384 10.7398Z" fill="#242E65"/>
<path d="M21.8994 11.1C21.9359 10.8466 22.0975 10.6286 22.3294 10.52C22.4323 10.4709 22.5454 10.4469 22.6594 10.45H27.5394C28.0748 10.444 28.6098 10.4808 29.1394 10.56L29.5594 10.64L29.9394 10.74L30.1294 10.8C30.3599 10.8751 30.584 10.9687 30.7994 11.08C31.1245 9.83063 30.8265 8.50118 29.9994 7.51C28.9994 6.45 27.3594 6 25.2194 6H18.9994C18.5615 5.99947 18.1883 6.31756 18.1194 6.75L15.5294 23.16C15.5062 23.3148 15.5513 23.472 15.653 23.5909C15.7547 23.7098 15.9029 23.7788 16.0594 23.78H19.8994L20.8994 17.67L21.8994 11.1Z" fill="#253D80"/>
</svg>
