<svg width="48" height="32" viewBox="0 0 48 32" fill="none" xmlns="http://www.w3.org/2000/svg">
<rect width="48" height="32" rx="4" fill="#DFE3E8"/>
<path fill-rule="evenodd" clip-rule="evenodd" d="M30.3502 17.6705C30.3563 16.1457 29.0988 15.4872 28.1229 14.9761C27.5051 14.6525 27.0002 14.3881 27.0002 14.0005C27.0002 13.6705 27.3202 13.3205 28.0002 13.2305C28.8095 13.1504 29.6253 13.2921 30.3602 13.6405L30.7802 11.6405C30.0638 11.3718 29.3053 11.233 28.5402 11.2305C26.1802 11.2305 24.5402 12.4905 24.5402 14.2905C24.5402 15.6205 25.7302 16.3605 26.6302 16.8005C27.5302 17.2405 27.8802 17.5505 27.8702 17.9505C27.8702 18.5705 27.1302 18.8505 26.4402 18.8605C25.589 18.8714 24.7492 18.6649 24.0002 18.2605L23.5702 20.2605C24.4176 20.5913 25.3204 20.7576 26.2302 20.7505C28.7402 20.7505 30.3902 19.5105 30.4002 17.5905L30.3502 17.6705ZM23.8602 11.3905L21.8602 20.6405H19.4602L21.4602 11.3905H23.8602ZM33.9202 17.3905L35.1802 13.9205L35.9102 17.3905H33.9202ZM38.8102 20.6705H36.5902L36.3002 19.2905H33.2902L32.8002 20.6705H30.2802L33.8702 12.1005C34.0357 11.6927 34.4301 11.4245 34.8702 11.4205H36.8702L38.8102 20.6705ZM16.6102 20.6105L20.4902 11.3605H17.8902L15.4002 17.6505L14.4002 12.3005C14.3116 11.7568 13.841 11.3582 13.2902 11.3605H9.22016L9.16016 11.6305C9.97649 11.7902 10.7694 12.0523 11.5202 12.4105C11.8399 12.5608 12.0566 12.8687 12.0902 13.2205L14.0002 20.6105H16.6102Z" fill="#2A2A6C"/>
</svg>
